<svg width="512" height="512" viewBox="0 0 512 512" fill="none" xmlns="http://www.w3.org/2000/svg">
<path d="M501.394 239.38L25.9773 19.9572C18.4072 16.5196 9.37431 18.5676 4.10815 25.0771C1.53129 28.2302 0.0873949 32.1571 0.00782417 36.2284C-0.0717465 40.2998 1.21761 44.28 3.66931 47.5314L160.008 255.983L3.66931 464.435C-1.37743 471.128 -1.19457 480.417 4.07158 486.89C7.61892 491.315 12.9217 493.692 18.2975 493.692C20.894 493.692 23.4905 493.143 25.9408 492.01L501.358 272.586C507.867 269.588 512 263.115 512 255.983C512 248.852 507.867 242.379 501.394 239.38Z" fill="white"/>
</svg>
