<svg width="204" height="287" viewBox="0 0 204 287" fill="none" xmlns="http://www.w3.org/2000/svg">
<g clip-path="url(#clip0_1825_2)">
<path d="M159.127 10.606H142.283L159.803 29.6281V38.6747H123.708V28.0802H141.229L123.708 9.05812V0H159.138L159.127 10.606ZM116.542 10.606H99.6763L117.219 29.6281V38.6747H81.1129V28.0802H98.6329L81.1129 9.05812V0H116.542V10.606ZM74.3709 11.0417H56.1973V27.6445H74.3709V38.6862H43.2637V0H74.3709V11.0417Z" fill="white"/>
<path d="M18.4832 263.615L0 56.3448H203.062L184.556 263.581L101.405 286.627L18.4832 263.615Z" fill="white"/>
<path d="M101.52 148.377H135.161L137.477 122.349H101.52V96.9408H165.271L164.663 103.763L158.414 173.82H101.52V148.377ZM101.677 214.405H101.562L73.2524 206.758L71.4408 186.486H45.9404L49.5063 226.399L101.585 240.892H101.734V214.405H101.677ZM133.024 172.711L129.963 206.731L101.607 214.379V240.865L153.72 226.418L154.099 222.118L158.525 172.7H133.024V172.711ZM101.628 96.9408V122.361H40.2385L39.7111 116.651L38.553 103.763L37.9453 96.9408H101.628ZM101.536 148.377V173.797H73.5472L73.0541 168.087L71.8961 155.199L71.2884 148.377H101.525H101.536Z" fill="#55569E"/>
</g>
<defs>
<clipPath id="clip0_1825_2">
<rect width="204" height="287" fill="white"/>
</clipPath>
</defs>
</svg>
