<svg width="189" height="264" viewBox="0 0 189 264" fill="none" xmlns="http://www.w3.org/2000/svg">
<path d="M18.835 0H30.5471V10.3729H41.3427V0H53.0549V31.3916H41.3427V20.9278H30.649V31.3916H18.835V0ZM68.5354 10.4639H58.1981V0H90.6357V10.4639H80.2475V31.3916H68.5354V10.4639ZM95.7789 0H108.051L115.588 11.0553L123.124 0H135.397V31.3916H123.684V15.8323L115.486 27.1151L107.287 15.8323V31.3916H95.7789V0ZM141.202 0H152.914V21.0187H169.515V31.3916H141.202" fill="white"/>
<path fill-rule="evenodd" clip-rule="evenodd" d="M17.1321 242.416L0 50.2266H188.35L171.218 242.312L94.0191 263.69L17.1321 242.416ZM37.6699 87.8965H94.1749H150.68L148.594 112.287H94.1748L94.1749 112.268H62.3537L64.4354 137.23H94.1749L94.1748 137.268H146.559L140.352 212.159L94.1749 226.02L47.9796 212.062L44.8074 173.787H67.4094L68.9955 193.274L94.1749 200.574L94.1748 200.662L119.349 193.356L121.98 161.659H94.1748L94.1749 161.548H43.8161L37.6699 87.8965Z" fill="white"/>
</svg>
