<svg width="273" height="273" viewBox="0 0 273 273" fill="none" xmlns="http://www.w3.org/2000/svg">
<g clip-path="url(#clip0_15192_52)">
<path fill-rule="evenodd" clip-rule="evenodd" d="M0 0H272.701V272.701H0V0ZM71.7075 227.885L92.5756 215.251C96.6022 222.389 100.267 228.428 109.044 228.428C117.47 228.428 122.775 225.137 122.775 212.322V125.186H148.405V212.684C148.405 239.23 132.842 251.31 110.141 251.31C89.6461 251.32 77.7474 240.7 71.7075 227.885ZM183.194 213.059L162.326 225.139C169.836 239.967 185.207 251.323 209.005 251.323C233.356 251.323 251.476 238.689 251.476 215.627C251.476 194.215 239.215 184.692 217.431 175.361L211.029 172.612C200.046 167.851 195.285 164.74 195.285 157.049C195.285 150.828 200.036 146.067 207.546 146.067C214.864 146.067 219.625 149.177 224.014 157.049L243.966 144.234C235.54 129.406 223.822 123.729 207.535 123.729C184.654 123.729 170.007 138.376 170.007 157.592C170.007 178.46 182.267 188.346 200.76 196.218L207.162 198.966C218.88 204.09 225.836 207.201 225.836 215.989C225.836 223.318 219.071 228.623 208.451 228.623C195.828 228.623 188.691 222.029 183.194 213.059Z" fill="white"/>
</g>
<defs>
<clipPath id="clip0_15192_52">
<rect width="272.702" height="272.702" fill="white"/>
</clipPath>
</defs>
</svg>
